<svg id="图层" xmlns="http://www.w3.org/2000/svg" viewBox="0 0 127.14 141.09"><defs><style>.cls-1{fill:#fff;}.cls-2{fill:#231815;}</style></defs><g id="_000000ff" data-name="#000000ff"><path class="cls-1" d="M66.19,122.21c-3,1.54-2.67,7.24.83,7.83C71.75,129.94,71.29,120.48,66.19,122.21Z" transform="translate(-3.81 -2.73)"/><path class="cls-2" d="M109.47,27.1c-2.42-8.71-5.62-17.57-11.79-24.37,3.67,11.18,5,23.27,2.69,34.87-1.09,4.84-2.89,9.75-6.44,13.35C89.75,55,84,56.75,78.58,58.51,69.28,61.16,59.77,64.83,53,72,42.93,82.48,39.38,97.83,40.9,112c1,9.85,4.62,20.27,12.92,26.29s20.32,3.8,27.28-3.16a22.65,22.65,0,0,0,5.38-20.72c-1.15-3.83-3.67-7.21-4-11.28-.17-3.31,2.18-5.93,4.61-7.83,4.36-3.41,8.74-7.31,10.72-12.63,1.2-3.43,1.83-7.59-.51-10.69-1.62,4.92-4.44,9.83-9.12,12.37a2.77,2.77,0,0,1-3.89-1.71C84.1,80.14,85.43,77.83,87,76c4.64-5.2,11.89-7.18,16.21-12.73C111.23,53.25,112.79,39.26,109.47,27.1ZM67,130c-3.5-.59-3.8-6.29-.83-7.83C71.29,120.48,71.75,129.94,67,130Z" transform="translate(-3.81 -2.73)"/><path class="cls-2" d="M43.76,34.7c4.56,4,3.55,11.67-.83,15.4A27.42,27.42,0,0,0,40.35,43,74,74,0,0,0,43.76,34.7Z" transform="translate(-3.81 -2.73)"/><path class="cls-2" d="M4.12,68C3.06,63,4.7,57.38,8.87,54.26c1.26,3.06,2,6.38,3.73,9.22a20.52,20.52,0,0,0,12.53,8.8,11.5,11.5,0,0,1-10.35,5.5A12.11,12.11,0,0,1,4.12,68Z" transform="translate(-3.81 -2.73)"/><path class="cls-2" d="M128.87,88.79a7.28,7.28,0,0,1,1.28,8.42C129.15,94.49,127.59,91.73,128.87,88.79Z" transform="translate(-3.81 -2.73)"/><path class="cls-2" d="M5,117.51c2.19,1.66,5.14,2.76,6.23,5.5.81,2.41,1.15,5,2.48,7.19-3.18-.41-6.77-1.33-8.57-4.23C3.71,123.33,4.81,120.29,5,117.51Z" transform="translate(-3.81 -2.73)"/><path class="cls-2" d="M110.29,130.41c1.59-2.55,3.6-4.67,6.77-4.94,3.09.55,3,2.65,3.33,4.55.79,7.34-6.06,14.56-13.51,13.73-2.13-.32-4.61-1.34-5.21-3.64,1.53.3,3.32.63,4.5-.7C108.52,136.91,108.59,133.26,110.29,130.41Z" transform="translate(-3.81 -2.73)"/></g><path class="cls-1" d="M80.39,125.16c-.29,2.06-1.52,3.59-2.75,3.42a2.3,2.3,0,0,1-1.77-2,6.68,6.68,0,0,1,.06-2c.29-2.06,1.52-3.59,2.76-3.41a1.7,1.7,0,0,1,1.44,1A5.51,5.51,0,0,1,80.39,125.16Z" transform="translate(-3.81 -2.73)"/></svg>